<svg width="20" height="20" viewBox="0 0 20 20" fill="none" xmlns="http://www.w3.org/2000/svg">
<path fill-rule="evenodd" clip-rule="evenodd" d="M10.7166 1.79535C10.2835 1.4971 9.71653 1.4971 9.28341 1.79535L2.14336 6.71204C1.81027 6.9414 1.60747 7.31102 1.59247 7.70791C1.54064 9.07986 1.4857 11.4824 1.63658 13.1877C1.7504 14.4741 2.05336 16.1746 2.29944 17.4256C2.41371 18.0065 2.91937 18.4283 3.52037 18.4283H6.84433C6.98594 18.4283 7.10074 18.3111 7.10074 18.1664V13.9753C7.10074 12.9626 7.90433 12.1417 8.89561 12.1417H11.4091C12.4004 12.1417 13.204 12.9626 13.204 13.9753V18.1664C13.204 18.3111 13.3188 18.4283 13.4604 18.4283H16.4796C17.0806 18.4283 17.5863 18.0065 17.7006 17.4256C17.9466 16.1746 18.2496 14.4741 18.3634 13.1877C18.5143 11.4824 18.4594 9.07986 18.4075 7.70791C18.3925 7.31102 18.1897 6.9414 17.8566 6.71203L10.7166 1.79535ZM8.42351 0.492111C9.37637 -0.164037 10.6236 -0.164037 11.5765 0.492111L18.7165 5.4088C19.4457 5.91092 19.9104 6.73645 19.9448 7.6473C19.9966 9.0177 20.0564 11.5119 19.8956 13.3291C19.7738 14.7066 19.4561 16.4785 19.2089 17.7352C18.9461 19.071 17.7924 20 16.4796 20H13.4604C12.4691 20 11.6655 19.1791 11.6655 18.1664V13.9753C11.6655 13.8306 11.5507 13.7133 11.4091 13.7133H8.89561C8.754 13.7133 8.6392 13.8306 8.6392 13.9753V18.1664C8.6392 19.1791 7.83561 20 6.84433 20H3.52037C2.20761 20 1.05389 19.071 0.791127 17.7352C0.543921 16.4785 0.226243 14.7066 0.104366 13.3291C-0.0564237 11.5119 0.0033809 9.0177 0.055155 7.6473C0.0895669 6.73645 0.554274 5.91092 1.28346 5.4088L8.42351 0.492111Z" fill="black"/>
</svg>
