<svg width="16" height="20" viewBox="0 0 16 20" fill="none" xmlns="http://www.w3.org/2000/svg">
<path d="M16 10.2564C16 13.7436 15.4904 19.0769 15.4904 19.2821C15.4904 19.4872 15.2866 19.7949 15.0828 19.8974C14.9809 20 14.879 20 14.6752 20C14.5732 20 14.4713 20 14.2675 19.8974L8.05096 16.6154C7.94905 16.6154 7.84713 16.6154 7.84713 16.6154L1.63057 19.8974C1.42675 20 1.12102 20 0.917198 19.8974C0.713376 19.7949 0.509554 19.5897 0.509554 19.2821C0.509554 19.0769 0 13.7436 0 10.2564C0.101911 8 0.305732 5.02564 0.509554 2.87179C0.611465 1.53846 1.63057 0.51282 2.95541 0.307692C4.38217 0.205128 6.42038 0 8.05096 0C9.68153 0 11.7197 0.205128 13.1465 0.307692C14.4713 0.410256 15.4904 1.53846 15.5924 2.87179C15.7962 5.02564 16 8 16 10.2564Z" fill="#111111"/>
</svg>
