<svg width="20" height="20" viewBox="0 0 20 20" fill="none" xmlns="http://www.w3.org/2000/svg">
<path d="M19.9068 2.38806L13.4371 18.9055C13.1385 19.602 12.5413 20 11.8446 20C11.1478 20 10.5506 19.602 10.252 18.9055L7.56459 12.5373C7.56459 12.4378 7.46506 12.4378 7.46506 12.4378L1.09488 9.75124C0.398137 9.45274 0 8.85572 0 8.1592C0 7.46269 0.398137 6.86567 1.09488 6.56716L17.6175 0.0995024C17.8166 -9.63757e-08 18.0157 0 18.2147 0C18.7124 0 19.1106 0.199005 19.4092 0.497512C20.0064 0.995025 20.1059 1.69154 19.9068 2.38806Z" fill="#111111"/>
</svg>
